<?xml version="1.0" encoding="UTF-8" standalone="no"?>
<svg
   id="Layer_1"
   data-name="Layer 1"
   viewBox="0 0 461.05 147.25"
   version="1.1"
   sodipodi:docname="CTI_Logo_Dark.svg"
   inkscape:version="1.1.2 (0a00cf5339, 2022-02-04)"
   xmlns:inkscape="http://www.inkscape.org/namespaces/inkscape"
   xmlns:sodipodi="http://sodipodi.sourceforge.net/DTD/sodipodi-0.dtd"
   xmlns="http://www.w3.org/2000/svg"
   xmlns:svg="http://www.w3.org/2000/svg">
  <sodipodi:namedview
     id="namedview54"
     pagecolor="#ffffff"
     bordercolor="#666666"
     borderopacity="1.0"
     inkscape:showpageshadow="2"
     inkscape:pageopacity="0.0"
     inkscape:pagecheckerboard="0"
     inkscape:deskcolor="#d1d1d1"
     showgrid="false"
     inkscape:zoom="2.0776843"
     inkscape:cx="247.39081"
     inkscape:cy="145.83544"
     inkscape:window-width="1920"
     inkscape:window-height="1053"
     inkscape:window-x="0"
     inkscape:window-y="27"
     inkscape:window-maximized="1"
     inkscape:current-layer="Layer_1"
     inkscape:pageshadow="2" />
  <defs
     id="defs27">
    <style
       id="style25">.cls-1{font-size:17px;}.cls-1,.cls-8{fill:#95c173;}.cls-1,.cls-3{font-family:Jost-Book, &quot;Jost*&quot;;}.cls-2{letter-spacing:-0.01em;}.cls-3{font-size:52.86px;}.cls-3,.cls-7{fill:#083745;}.cls-4{letter-spacing:-0.08em;}.cls-5{letter-spacing:0em;}.cls-6{letter-spacing:-0.01em;}.cls-7,.cls-8{fill-rule:evenodd;}</style>
  </defs>
  <g
     aria-label="Initiative"
     transform="translate(380.81 46.09)"
     id="text33"
     class="cls-1"
     style="font-size:17px;font-family:Jost-Book, 'Jost*';fill:#95c173">
    <path
       d="M 1.36,-11.9 H 2.805 V 0 H 1.36 Z"
       id="path341" />
    <path
       d="m 10.454982,-4.76 c 0,-1.292 -0.5610002,-1.955 -1.6660002,-1.955 -0.595,0 -1.071,0.187 -1.445,0.561 -0.374,0.374 -0.544,0.833 -0.544,1.394 V 0 h -1.36 v -7.82 h 1.36 v 1.241 c 0.238,-0.425 0.544,-0.765 0.952,-1.02 0.408,-0.255 0.867,-0.391 1.377,-0.391 0.799,0 1.4450002,0.272 1.9380002,0.782 0.493,0.51 0.748,1.275 0.748,2.278 V 0 h -1.36 z"
       id="path343" />
    <path
       d="m 14.619975,-7.82 h 1.36 V 0 h -1.36 z m -0.255,-3.23 c 0,-0.255 0.085,-0.476 0.272,-0.663 0.187,-0.17 0.408,-0.272 0.663,-0.272 0.255,0 0.476,0.102 0.663,0.272 0.17,0.187 0.272,0.408 0.272,0.663 0,0.255 -0.102,0.476 -0.272,0.663 -0.187,0.187 -0.408,0.272 -0.663,0.272 -0.255,0 -0.476,-0.085 -0.663,-0.272 -0.187,-0.187 -0.272,-0.408 -0.272,-0.663 z"
       id="path345" />
    <path
       d="m 18.869947,-10.54 h 1.36 v 2.72 h 1.275 v 1.275 h -1.275 V 0 h -1.36 v -6.545 h -1.275 V -7.82 h 1.275 z"
       id="path347" />
    <path
       d="m 23.119943,-7.82 h 1.36 V 0 h -1.36 z m -0.255,-3.23 c 0,-0.255 0.085,-0.476 0.272,-0.663 0.187,-0.17 0.408,-0.272 0.663,-0.272 0.255,0 0.476,0.102 0.663,0.272 0.17,0.187 0.272,0.408 0.272,0.663 0,0.255 -0.102,0.476 -0.272,0.663 -0.187,0.187 -0.408,0.272 -0.663,0.272 -0.255,0 -0.476,-0.085 -0.663,-0.272 -0.187,-0.187 -0.272,-0.408 -0.272,-0.663 z"
       id="path349" />
    <path
       d="m 27.896914,-5.984 -0.663,-1.037 c 0.289,-0.204 0.68,-0.425 1.19,-0.646 0.493,-0.204 1.088,-0.323 1.802,-0.323 0.884,0 1.615,0.221 2.176,0.629 0.544,0.408 0.833,1.003 0.833,1.751 V 0 h -1.36 v -1.122 c -0.238,0.425 -0.595,0.748 -1.071,0.969 -0.476,0.221 -1.02,0.323 -1.598,0.323 -0.493,0 -0.935,-0.085 -1.343,-0.272 -0.408,-0.17 -0.748,-0.442 -0.986,-0.799 -0.238,-0.357 -0.357,-0.799 -0.357,-1.343 0,-0.816 0.289,-1.462 0.884,-1.921 0.595,-0.459 1.411,-0.697 2.448,-0.697 0.459,0 0.85,0.068 1.19,0.17 0.34,0.119 0.612,0.255 0.833,0.391 V -5.61 c 0,-0.391 -0.17,-0.68 -0.51,-0.884 -0.34,-0.204 -0.714,-0.306 -1.139,-0.306 -0.561,0 -1.037,0.102 -1.445,0.306 -0.408,0.204 -0.697,0.374 -0.884,0.51 z m 0,3.689 c 0,0.425 0.153,0.748 0.476,0.952 0.323,0.204 0.714,0.306 1.173,0.306 0.68,0 1.224,-0.153 1.666,-0.459 0.442,-0.306 0.663,-0.833 0.663,-1.564 v -0.306 c -0.306,-0.153 -0.612,-0.272 -0.918,-0.34 -0.323,-0.068 -0.663,-0.119 -1.037,-0.119 -0.697,0 -1.207,0.136 -1.53,0.408 -0.34,0.272 -0.493,0.646 -0.493,1.122 z"
       id="path351" />
    <path
       d="m 35.61489,-10.54 h 1.36 v 2.72 h 1.275 v 1.275 h -1.275 V 0 h -1.36 v -6.545 h -1.275 V -7.82 h 1.275 z"
       id="path353" />
    <path
       d="m 39.864888,-7.82 h 1.36 V 0 h -1.36 z m -0.255,-3.23 c 0,-0.255 0.085,-0.476 0.272,-0.663 0.187,-0.17 0.408,-0.272 0.663,-0.272 0.255,0 0.476,0.102 0.663,0.272 0.17,0.187 0.272,0.408 0.272,0.663 0,0.255 -0.102,0.476 -0.272,0.663 -0.187,0.187 -0.408,0.272 -0.663,0.272 -0.255,0 -0.476,-0.085 -0.663,-0.272 -0.187,-0.187 -0.272,-0.408 -0.272,-0.663 z"
       id="path355" />
    <path
       d="m 42.75,-7.82 h 1.53 l 2.21,5.525 2.21,-5.525 h 1.53 l -3.74,8.415 z"
       style="letter-spacing:-0.01em"
       id="path357" />
    <path
       d="m 51.969,-3.57 c 0.051,0.799 0.306,1.411 0.748,1.836 0.442,0.425 1.02,0.629 1.734,0.629 0.561,0 1.037,-0.119 1.445,-0.391 0.408,-0.255 0.731,-0.595 1.003,-1.02 l 1.105,0.697 c -0.272,0.408 -0.561,0.748 -0.867,1.054 -0.323,0.306 -0.714,0.527 -1.156,0.697 -0.459,0.17 -1.02,0.238 -1.7,0.238 -0.714,0 -1.343,-0.17 -1.904,-0.527 -0.561,-0.34 -1.003,-0.833 -1.326,-1.445 -0.323,-0.612 -0.476,-1.326 -0.476,-2.108 0,-0.136 0,-0.289 0.017,-0.425 0,-0.136 0.017,-0.272 0.051,-0.408 0.102,-0.646 0.34,-1.207 0.68,-1.7 0.34,-0.476 0.765,-0.867 1.309,-1.139 0.544,-0.272 1.139,-0.408 1.819,-0.408 0.731,0 1.377,0.17 1.938,0.493 0.544,0.34 0.986,0.799 1.292,1.394 0.306,0.595 0.459,1.309 0.459,2.125 v 0.204 c 0,0.068 -0.017,0.136 -0.017,0.204 z m 0.034,-1.156 h 4.658 C 56.593,-5.338 56.372,-5.831 56.015,-6.222 55.641,-6.596 55.131,-6.8 54.451,-6.8 c -0.629,0 -1.173,0.187 -1.649,0.561 -0.476,0.374 -0.731,0.884 -0.799,1.513 z"
       id="path359" />
  </g>
  <g
     aria-label="arbon Tracker"
     transform="translate(105.64 87.21) scale(1.1 1)"
     id="text43"
     class="cls-3"
     style="font-size:52.86px;font-family:Jost-Book, 'Jost*';fill:#ffffff">
    <path
       d="M 5.8674601,-18.60672 3.80592,-21.83118 c 0.8986201,-0.63432 2.1144001,-1.3215 3.7002001,-2.00868 1.53294,-0.63432 3.3830399,-1.00434 5.6031599,-1.00434 2.74872,0 5.0217,0.68718 6.76608,1.95582 1.69152,1.26864 2.59014,3.11874 2.59014,5.44458 V 0 h -4.2288 v -3.48876 c -0.74004,1.3215 -1.8501,2.32584 -3.33018,3.01301999 -1.48008,0.68718001 -3.1716,1.00434002 -4.9688399,1.00434002 -1.53294,0 -2.9073,-0.26430001 -4.17594,-0.84576001 C 4.4931001,-0.84576001 3.4359,-1.69152 2.69586,-2.80158 1.95582,-3.91164 1.5858,-5.2860001 1.5858,-6.9775201 c 0,-2.53728 0.89862,-4.5459599 2.7487201,-5.9731799 1.8501,-1.42722 4.38738,-2.16726 7.6118399,-2.16726 1.42722,0 2.643,0.21144 3.7002,0.5286 1.0572,0.37002 1.90296,0.7929 2.59014,1.21578 v -4.07022 c 0,-1.21578 -0.5286,-2.1144 -1.5858,-2.74872 -1.0572,-0.63432 -2.22012,-0.95148 -3.54162,-0.95148 -1.74438,0 -3.2244599,0.31716 -4.4930999,0.95148 -1.26864,0.63432 -2.16726,1.16292 -2.74872,1.5858 z m 0,11.4706199 c 0,1.3215 0.47574,2.32584 1.48008,2.9601601 1.00434,0.63432 2.22012,0.95148 3.6473399,0.95148 2.1144,0 3.80592,-0.47574 5.18028,-1.4272201 1.37436,-0.95148 2.06154,-2.59014 2.06154,-4.86312 V -10.46628 c -0.95148,-0.47574 -1.90296,-0.84576 -2.85444,-1.0572 -1.00434,-0.21144 -2.06154,-0.37002 -3.22446,-0.37002 -2.1672599,0 -3.7530599,0.42288 -4.7573999,1.26864 -1.0572,0.8457599 -1.53294,2.0086799 -1.53294,3.4887599 z"
       id="path316"
       style="fill:#ffffff" />
    <path
       d="m 41.177872,-19.66392 c -0.58146,-0.42288 -1.11006,-0.68718 -1.53294,-0.89862 -0.47574,-0.21144 -1.0572,-0.31716 -1.74438,-0.31716 -1.5858,0 -2.69586,0.58146 -3.22446,1.74438 -0.58146,1.16292 -0.84576,2.59014 -0.84576,4.33452 V 0 h -4.2288 v -24.3156 h 4.2288 v 2.80158 c 0.68718,-1.00434 1.48008,-1.79724 2.3787,-2.43156 0.89862,-0.58146 1.79724,-0.89862 2.74872,-0.89862 0.84576,0 1.69152,0.15858 2.43156,0.37002 0.74004,0.21144 1.48008,0.68718 2.1144,1.3215 z"
       id="path318"
       style="fill:#ffffff" />
    <path
       d="m 67.766373,-12.1578 c 0,-1.8501 -0.42288,-3.4359 -1.16292,-4.7574 -0.74004,-1.26864 -1.74438,-2.27298 -3.01302,-2.96016 -1.26864,-0.63432 -2.643,-1.00434 -4.12308,-1.00434 -1.26864,0 -2.48442,0.37002 -3.64734,1.00434 -1.21578,0.68718 -2.22012,1.69152 -2.96016,2.96016 -0.7929,1.3215 -1.16292,2.9073 -1.16292,4.7574 0,1.90296 0.37002,3.4887599 1.16292,4.7573999 0.74004,1.3215 1.74438,2.32584 2.96016,2.96016 1.16292,0.6871801 2.3787,1.0043401 3.64734,1.0043401 1.48008,0 2.85444,-0.31716 4.12308,-1.0043401 1.26864,-0.63432 2.27298,-1.63866 3.01302,-2.96016 0.74004,-1.26864 1.16292,-2.8544399 1.16292,-4.7573999 z m 4.28166,0 c 0,2.6429999 -0.58146,4.8631199 -1.63866,6.7660799 -1.11006,1.9029601 -2.59014,3.3830401 -4.38738,4.3873801 -1.79724,1.0572 -3.80592,1.53294001 -6.02604,1.53294001 -1.79724,0 -3.4359,-0.37002001 -4.81026,-1.21578002 C 53.758473,-1.48008 52.595553,-2.643 51.696933,-4.17594 V 0 h -4.2288 v -41.2308 h 4.2288 v 21.09114 c 0.89862,-1.48008 2.06154,-2.643 3.48876,-3.48876 1.37436,-0.7929 3.01302,-1.21578 4.81026,-1.21578 2.22012,0 4.2288,0.5286 6.02604,1.53294 1.79724,1.0572 3.27732,2.48442 4.38738,4.38738 1.0572,1.90296 1.63866,4.12308 1.63866,6.76608 z"
       id="path320"
       style="fill:#ffffff" />
    <path
       d="m 80.029877,-12.1578 c 0,1.69152 0.31716,3.2244599 1.0572,4.4930999 0.74004,1.3215 1.69152,2.3787 2.96016,3.11874 1.26864,0.7400401 2.69586,1.1100601 4.28166,1.1100601 1.5858,0 2.96016,-0.37002 4.2288,-1.1100601 1.26864,-0.74004 2.22012,-1.79724 2.96016,-3.11874 0.74004,-1.26864 1.11006,-2.8015799 1.11006,-4.4930999 0,-1.69152 -0.37002,-3.1716 -1.11006,-4.4931 -0.74004,-1.3215 -1.69152,-2.3787 -2.96016,-3.11874 -1.26864,-0.74004 -2.643,-1.11006 -4.2288,-1.11006 -1.5858,0 -3.01302,0.37002 -4.28166,1.11006 -1.26864,0.74004 -2.22012,1.79724 -2.96016,3.11874 -0.74004,1.3215 -1.0572,2.80158 -1.0572,4.4931 z m -4.28166,0 c 0,-2.43156 0.5286,-4.65168 1.63866,-6.55464 1.11006,-1.90296 2.643,-3.38304 4.54596,-4.4931 1.90296,-1.0572 4.01736,-1.63866 6.39606,-1.63866 2.3787,0 4.4931,0.58146 6.39606,1.63866 1.90296,1.11006 3.38304,2.59014 4.4931,4.4931 1.110063,1.90296 1.691523,4.12308 1.691523,6.55464 0,2.4315599 -0.58146,4.6516799 -1.691523,6.5546399 -1.11006,1.9029601 -2.59014,3.4359001 -4.4931,4.4931001 -1.90296,1.11006 -4.01736,1.63866001 -6.39606,1.63866001 -2.3787,0 -4.4931,-0.52860001 -6.39606,-1.63866001 -1.90296,-1.0572 -3.4359,-2.59014 -4.54596,-4.4931001 -1.11006,-1.90296 -1.63866,-4.12308 -1.63866,-6.5546399 z"
       id="path322"
       style="fill:#ffffff" />
    <path
       d="m 122.31785,-14.8008 c 0,-4.01736 -1.74438,-6.0789 -5.18028,-6.0789 -1.8501,0 -3.33018,0.58146 -4.4931,1.74438 -1.16292,1.16292 -1.69152,2.59014 -1.69152,4.33452 V 0 h -4.2288 v -24.3156 h 4.2288 v 3.85878 c 0.74004,-1.3215 1.69152,-2.3787 2.96016,-3.1716 1.26864,-0.7929 2.69586,-1.21578 4.28166,-1.21578 2.48442,0 4.4931,0.84576 6.02604,2.43156 1.53294,1.5858 2.32584,3.9645 2.32584,7.08324 V 0 h -4.2288 z"
       id="path324"
       style="fill:#ffffff" />
    <path
       d="m 146.8886,-32.7732 v -4.2288 h 23.5227 v 4.2288 h -9.5148 V 0 h -4.4931 v -32.7732 z"
       style="letter-spacing:-0.08em;fill:#ffffff"
       id="path326" />
    <path
       d="m 182.25085,-19.66392 c -0.58146,-0.42288 -1.11006,-0.68718 -1.53294,-0.89862 -0.47574,-0.21144 -1.0572,-0.31716 -1.74438,-0.31716 -1.5858,0 -2.69586,0.58146 -3.22446,1.74438 -0.58146,1.16292 -0.84576,2.59014 -0.84576,4.33452 V 0 h -4.2288 v -24.3156 h 4.2288 v 2.80158 c 0.68718,-1.00434 1.48008,-1.79724 2.3787,-2.43156 0.89862,-0.58146 1.79724,-0.89862 2.74872,-0.89862 0.84576,0 1.69152,0.15858 2.43156,0.37002 0.74004,0.21144 1.48008,0.68718 2.1144,1.3215 z"
       style="letter-spacing:0em;fill:#ffffff"
       id="path328" />
    <path
       d="m 190.70837,-18.60672 -2.06154,-3.22446 c 0.89862,-0.63432 2.1144,-1.3215 3.7002,-2.00868 1.53294,-0.63432 3.38304,-1.00434 5.60316,-1.00434 2.74872,0 5.0217,0.68718 6.76608,1.95582 1.69152,1.26864 2.59014,3.11874 2.59014,5.44458 V 0 h -4.2288 v -3.48876 c -0.74004,1.3215 -1.8501,2.32584 -3.33018,3.01301999 -1.48008,0.68718001 -3.1716,1.00434002 -4.96884,1.00434002 -1.53294,0 -2.9073,-0.26430001 -4.17594,-0.84576001 -1.26864,-0.52860001 -2.32584,-1.37436 -3.06588,-2.48442 -0.74004,-1.11006 -1.11006,-2.4844201 -1.11006,-4.1759401 0,-2.53728 0.89862,-4.5459599 2.74872,-5.9731799 1.8501,-1.42722 4.38738,-2.16726 7.61184,-2.16726 1.42722,0 2.643,0.21144 3.7002,0.5286 1.0572,0.37002 1.90296,0.7929 2.59014,1.21578 v -4.07022 c 0,-1.21578 -0.5286,-2.1144 -1.5858,-2.74872 -1.0572,-0.63432 -2.22012,-0.95148 -3.54162,-0.95148 -1.74438,0 -3.22446,0.31716 -4.4931,0.95148 -1.26864,0.63432 -2.16726,1.16292 -2.74872,1.5858 z m 0,11.4706199 c 0,1.3215 0.47574,2.32584 1.48008,2.9601601 1.00434,0.63432 2.22012,0.95148 3.64734,0.95148 2.1144,0 3.80592,-0.47574 5.18028,-1.4272201 1.37436,-0.95148 2.06154,-2.59014 2.06154,-4.86312 V -10.46628 c -0.95148,-0.47574 -1.90296,-0.84576 -2.85444,-1.0572 -1.00434,-0.21144 -2.06154,-0.37002 -3.22446,-0.37002 -2.16726,0 -3.75306,0.42288 -4.7574,1.26864 -1.0572,0.8457599 -1.53294,2.0086799 -1.53294,3.4887599 z"
       style="letter-spacing:0em;fill:#ffffff"
       id="path330" />
    <path
       d="m 216.3454,-12.1578 c 0,1.69152 0.31716,3.2244599 1.0572,4.4930999 0.74004,1.3215 1.69152,2.3787 2.96016,3.11874 1.26864,0.7400401 2.69586,1.1100601 4.28166,1.1100601 1.95582,0 3.7002,-0.42288 5.286,-1.3215001 1.53294,-0.84576 2.59014,-1.90296 3.1716,-3.11874 V -2.59014 c -0.84576,1.00434 -2.06154,1.79723999 -3.64734,2.32584 -1.5858,0.5286 -3.1716,0.79290001 -4.81026,0.79290001 -2.3787,0 -4.4931,-0.52860001 -6.39606,-1.63866001 -1.90296,-1.0572 -3.4359,-2.59014 -4.54596,-4.4931001 -1.11006,-1.90296 -1.63866,-4.12308 -1.63866,-6.5546399 0,-2.43156 0.5286,-4.65168 1.63866,-6.55464 1.11006,-1.90296 2.643,-3.38304 4.54596,-4.4931 1.90296,-1.0572 4.01736,-1.63866 6.39606,-1.63866 1.63866,0 3.22446,0.31716 4.81026,0.84576 1.5858,0.5286 2.80158,1.3215 3.64734,2.27298 v 5.286 c -0.58146,-1.16292 -1.63866,-2.22012 -3.1716,-3.11874 -1.5858,-0.84576 -3.33018,-1.3215 -5.286,-1.3215 -1.5858,0 -3.01302,0.37002 -4.28166,1.11006 -1.26864,0.74004 -2.22012,1.79724 -2.96016,3.11874 -0.74004,1.3215 -1.0572,2.80158 -1.0572,4.4931 z"
       style="letter-spacing:0em;fill:#ffffff"
       id="path332" />
    <path
       d="m 252.65521,-24.3156 h 5.286 l -10.572,10.0434 L 258.99841,0 h -5.286 l -10.0434,-12.31638 V 0 h -4.2288 v -41.2308 h 4.2288 v 25.47852 z"
       style="letter-spacing:-0.01em;fill:#ffffff"
       id="path334" />
    <path
       d="m 264.38463,-11.1006 c 0.15858,2.4844199 0.95148,4.3873799 2.32584,5.7088799 1.37436,1.3215001 3.1716,1.9558201 5.39172,1.9558201 1.74438,0 3.22446,-0.37002 4.4931,-1.2157801 1.26864,-0.7929 2.27298,-1.8501 3.11874,-3.1716 l 3.4359,2.16726 c -0.84576,1.26864 -1.74438,2.3258401 -2.69586,3.2773201 -1.00434,0.95148 -2.22012,1.63865999 -3.59448,2.16726 -1.42722,0.5286 -3.1716,0.74004001 -5.286,0.74004001 -2.22012,0 -4.17594,-0.52860001 -5.92032,-1.63866001 -1.74438,-1.0572 -3.11874,-2.59014 -4.12308,-4.4931001 -1.00434,-1.90296 -1.48008,-4.12308 -1.48008,-6.5546399 0,-0.42288 0,-0.89862 0.0529,-1.3215 0,-0.42288 0.0529,-0.84576 0.15858,-1.26864 0.31716,-2.00868 1.0572,-3.75306 2.1144,-5.286 1.0572,-1.48008 2.3787,-2.69586 4.07022,-3.54162 1.69152,-0.84576 3.54162,-1.26864 5.65602,-1.26864 2.27298,0 4.28166,0.5286 6.02604,1.53294 1.69152,1.0572 3.06588,2.48442 4.01736,4.33452 0.95148,1.8501 1.42722,4.07022 1.42722,6.6075 v 0.63432 c 0,0.21144 -0.0529,0.42288 -0.0529,0.63432 z m 0.10572,-3.59448 h 14.48364 c -0.21144,-1.90296 -0.89862,-3.4359 -2.00868,-4.65168 -1.16292,-1.16292 -2.74872,-1.79724 -4.86312,-1.79724 -1.95582,0 -3.64734,0.58146 -5.12742,1.74438 -1.48008,1.16292 -2.27298,2.74872 -2.48442,4.70454 z"
       id="path336"
       style="fill:#ffffff" />
    <path
       d="m 300.96372,-19.66392 c -0.58146,-0.42288 -1.11006,-0.68718 -1.53294,-0.89862 -0.47574,-0.21144 -1.0572,-0.31716 -1.74438,-0.31716 -1.5858,0 -2.69586,0.58146 -3.22446,1.74438 -0.58146,1.16292 -0.84576,2.59014 -0.84576,4.33452 V 0 h -4.2288 v -24.3156 h 4.2288 v 2.80158 c 0.68718,-1.00434 1.48008,-1.79724 2.3787,-2.43156 0.89862,-0.58146 1.79724,-0.89862 2.74872,-0.89862 0.84576,0 1.69152,0.15858 2.43156,0.37002 0.74004,0.21144 1.48008,0.68718 2.1144,1.3215 z"
       id="path338"
       style="fill:#ffffff" />
  </g>
  <path
     class="cls-7"
     d="M114.34,39.88l-1.84-1.75a54.64,54.64,0,0,0-5.68-4.38,47.78,47.78,0,0,0-9.94-5,48.34,48.34,0,0,0-31.06-.69,47.73,47.73,0,0,0-.08,91.05,48.3,48.3,0,0,0,31.06-.64,47.66,47.66,0,0,0,10-5,52.59,52.59,0,0,0,5.68-4.36l1.85-1.75,9.94,9.9-2.38,2.24a68.71,68.71,0,0,1-7.34,5.65,62.45,62.45,0,0,1-53,7.24,61.68,61.68,0,0,1,.11-117.7,62.34,62.34,0,0,1,40.12.89,61.61,61.61,0,0,1,12.88,6.45,67.37,67.37,0,0,1,7.33,5.65L124.3,30Z"
     id="path45"
     style="fill:#ffffff" />
  <path
     class="cls-8"
     d="M99.73,53.72l-1.11-1L98,52.17a6.21,6.21,0,0,0-.75-.63l-2-1.43c-.78-.45-1.63-1-2.59-1.52l-1.55-.71c-.26-.13-.53-.26-.81-.38l-.88-.31a27.08,27.08,0,0,0-8.29-1.67,28.09,28.09,0,0,0-9.91,1.26,28.21,28.21,0,0,0-17,14.85,27.81,27.81,0,0,0,0,23.95,28,28,0,0,0,26.84,16.15,26.51,26.51,0,0,0,8.29-1.66l.88-.3.82-.38,1.55-.71c.95-.52,1.8-1.06,2.59-1.51l2-1.43a6.21,6.21,0,0,0,.75-.63l.61-.55,1.11-1,6,6-1.43,1.29-.79.71a10.38,10.38,0,0,1-1,.81l-2.54,1.86c-1,.6-2.13,1.29-3.38,2l-2,.94c-.35.16-.7.33-1.07.48l-1.14.4a34.82,34.82,0,0,1-10.77,2.16,36.74,36.74,0,0,1-12.86-1.66,36.59,36.59,0,0,1-22-19.33A36.32,36.32,0,0,1,46.7,58,36.46,36.46,0,0,1,81.61,37.11a35,35,0,0,1,10.76,2.18l1.14.4,1.07.49,2,.94c1.25.67,2.36,1.37,3.37,2L102.5,45a10.38,10.38,0,0,1,1,.81l.78.71,1.43,1.3Z"
     id="path47" />
  <path
     class="cls-8"
     d="M91.5,61.58l-.67-.6c-.23-.19-.47-.46-.82-.71l-1.18-.87c-.47-.27-1-.6-1.57-.92l-.93-.43-.5-.23-.53-.18a16.41,16.41,0,0,0-5-1,17.27,17.27,0,0,0-6,.77,17,17,0,0,0-10.25,9,17.28,17.28,0,0,0-1.65,7.24A17.5,17.5,0,0,0,64,80.86a17.11,17.11,0,0,0,4.37,5.72,16.72,16.72,0,0,0,5.87,3.27,17.05,17.05,0,0,0,6,.78,16.13,16.13,0,0,0,5-1l.54-.18.49-.23.94-.43c.58-.32,1.09-.64,1.57-.91L90,87c.35-.25.59-.52.82-.71l.67-.6,3.6,3.6s-.31.27-.87.79c-.29.24-.62.59-1.06.91l-1.54,1.13c-.61.36-1.29.78-2,1.19l-1.22.56c-.21.1-.42.2-.65.29l-.69.25a21.24,21.24,0,0,1-6.51,1.3A22.11,22.11,0,0,1,59.41,83a21.94,21.94,0,0,1,0-18.82A22,22,0,0,1,80.54,51.54a21.22,21.22,0,0,1,6.51,1.32l.69.24.65.29L89.6,54c.76.41,1.43.83,2,1.19l1.54,1.13c.44.33.77.67,1.06.92l.86.79Z"
     id="path49" />
  <path
     class="cls-8"
     d="M86.53,66.87l-.37-.34A12.43,12.43,0,0,0,85,65.64a9.61,9.61,0,0,0-4.8-1.55,9.47,9.47,0,0,0-6.66,2.26,9.53,9.53,0,0,0,0,14.54,9.5,9.5,0,0,0,6.66,2.27A9.61,9.61,0,0,0,85,81.62a10.08,10.08,0,0,0,1.12-.89l.38-.34,2,2-.49.44A11.6,11.6,0,0,1,86.59,84,12.45,12.45,0,0,1,76,85.45a12.2,12.2,0,0,1-4.29-2.39,12.35,12.35,0,0,1-3.18-4.17,12.26,12.26,0,0,1,0-10.56,12.43,12.43,0,0,1,18.07-5.07,13.31,13.31,0,0,1,1.46,1.15l.48.44Z"
     id="path51" />
</svg>
