<!-- Created with Inkscape (http://www.inkscape.org/) -->
<svg width="103.02mm" height="103.02mm" version="1.1" viewBox="0 0 103.02 103.02" xmlns="http://www.w3.org/2000/svg">
 <g transform="translate(-51.197 -47.979)">
  <path transform="translate(44.942 6.4067)" d="m93.288 107.28 10.37 9.6007-13.822-2.9428 8.2981 11.439-12.983-5.5829 5.907 12.838-11.644-8.0084 3.2888 13.744-9.8579-10.126 0.54425 14.122-7.693-11.855-2.2212 13.957-5.2324-13.128-4.9013 13.255-2.5708-13.896-7.3931 12.044 0.18969-14.131-9.6007 10.37 2.9428-13.822-11.439 8.2981 5.5829-12.983-12.838 5.907 8.0084-11.644-13.744 3.2888 10.126-9.8579-14.122 0.54425 11.855-7.693-13.957-2.2212 13.128-5.2324-13.255-4.9013 13.896-2.5708-12.044-7.3931 14.131 0.18969-10.37-9.6007 13.822 2.9428-8.2981-11.439 12.983 5.5829-5.907-12.838 11.644 8.0084-3.2888-13.744 9.8579 10.126-0.54425-14.122 7.693 11.855 2.2212-13.957 5.2324 13.128 4.9013-13.255 2.5708 13.896 7.3931-12.044-0.18969 14.131 9.6007-10.37-2.9428 13.822 11.439-8.2981-5.5829 12.983 12.838-5.907-8.0084 11.644 13.744-3.2888-10.126 9.8579 14.122-0.54425-11.855 7.693 13.957 2.2212-13.128 5.2324 13.255 4.9013-13.896 2.5708 12.044 7.3931z" fill="#fce94f" stop-color="#000000" stroke-miterlimit="2" stroke-width="1.101"/>
  <text x="66.809868" y="108.82299" fill="#000000" font-family="'Futura Md Bt'" font-size="23.619px" letter-spacing="0px" stroke-width=".26458" word-spacing="0px" style="font-feature-settings:normal;font-variant-caps:normal;font-variant-ligatures:normal;font-variant-numeric:normal;line-height:1.25" xml:space="preserve"><tspan x="66.809868" y="108.82299" font-family="Impact" stroke-width=".26458">IMPACT</tspan></text>
 </g>
</svg>
