<?xml version="1.0" standalone="no"?>
<!DOCTYPE svg PUBLIC "-//W3C//DTD SVG 1.1//EN" "http://www.w3.org/Graphics/SVG/1.1/DTD/svg11.dtd">
<svg version="1.1" xmlns="http://www.w3.org/2000/svg" viewBox="0 0 288.7744140625 161.92721785872993" width="577.548828125" height="323.85443571745986"><!-- svg-source:excalidraw --><metadata></metadata><defs><style class="style-fonts">
      </style></defs><g stroke-linecap="round" transform="translate(10 10) rotate(0 134.38720703125 64.3212890625)"><path d="M138.23 -0.57 C153.89 -1.17, 171.88 2.26, 186.58 5.32 C201.29 8.37, 215.03 12.39, 226.45 17.75 C237.87 23.12, 248.19 30.43, 255.11 37.52 C262.04 44.61, 266.59 52.69, 267.99 60.28 C269.4 67.87, 268.4 75.82, 263.55 83.05 C258.7 90.29, 249.14 97.62, 238.92 103.69 C228.7 109.75, 216.12 115.31, 202.24 119.42 C188.35 123.53, 171.5 126.95, 155.6 128.34 C139.69 129.73, 122.42 129.57, 106.8 127.75 C91.19 125.93, 75.59 121.77, 61.93 117.43 C48.26 113.09, 34.52 107.88, 24.79 101.71 C15.07 95.54, 7.61 87.92, 3.57 80.39 C-0.47 72.87, -1.38 64.08, 0.53 56.57 C2.45 49.05, 7.48 42.18, 15.05 35.31 C22.63 28.43, 33.61 20.59, 45.98 15.32 C58.35 10.04, 73.15 6.28, 89.27 3.65 C105.38 1.01, 132.85 -0.11, 142.67 -0.47 C152.5 -0.84, 148.37 0.17, 148.21 1.48 M155.48 1.02 C171.27 0.85, 189.36 4.02, 203.17 7.69 C216.99 11.36, 228.34 16.8, 238.38 23.03 C248.41 29.26, 258.62 37.46, 263.39 45.05 C268.16 52.65, 268.13 60.72, 266.99 68.6 C265.85 76.47, 263.01 85.05, 256.55 92.31 C250.08 99.58, 239.91 107.14, 228.2 112.19 C216.5 117.23, 201.51 120, 186.32 122.58 C171.14 125.17, 153.25 127.39, 137.1 127.69 C120.95 127.99, 104.75 126.76, 89.44 124.37 C74.13 121.98, 57.62 118.45, 45.23 113.36 C32.83 108.26, 22.66 100.84, 15.07 93.8 C7.47 86.77, 1.69 78.72, -0.35 71.17 C-2.39 63.61, -1.48 55.66, 2.84 48.47 C7.16 41.27, 15.79 34.16, 25.56 28 C35.32 21.85, 47.97 15.87, 61.45 11.53 C74.93 7.19, 90.85 3.77, 106.45 1.97 C122.05 0.16, 147.06 0.57, 155.06 0.72 C163.05 0.86, 154.86 1.58, 154.42 2.84" stroke="#000000" stroke-width="1" fill="none"></path></g><g stroke-linecap="round"><g transform="translate(37.139768016581684 110.43506855867417) rotate(0 -1.023816669992243 20.170528414465593)" fill-rule="evenodd"><path d="M0 0 C-3.15 6.7, -21.7 37.98, -18.91 40.19 C-16.11 42.4, 13.61 19.95, 16.76 13.26 C19.91 6.56, 2.79 2.21, 0 0" stroke="none" stroke-width="0" fill="#fff" fill-rule="evenodd"></path><path d="M0 0 C-3.15 6.7, -21.7 37.98, -18.91 40.19 C-16.11 42.4, 13.61 19.95, 16.76 13.26 C19.91 6.56, 2.79 2.21, 0 0 M0 0 C-3.15 6.7, -21.7 37.98, -18.91 40.19 C-16.11 42.4, 13.61 19.95, 16.76 13.26 C19.91 6.56, 2.79 2.21, 0 0" stroke="#fff" stroke-width="1" fill="none"></path></g></g><mask></mask><g stroke-linecap="round"><g transform="translate(36.00048828125068 110.82320232780648) rotate(0 0.7993507851408026 20.91361958582803)"><path d="M-1.15 1.16 C-4.21 8.1, -21.89 39.39, -18.3 41.03 C-14.72 42.68, 14.02 16.08, 20.38 11.03 M0.45 0.72 C-2.22 7.41, -19.2 37.65, -15.96 39.53 C-12.72 41.4, 13.89 16.68, 19.91 11.98" stroke="#000000" stroke-width="1" fill="none"></path></g></g><mask></mask></svg>